<svg xmlns="http://www.w3.org/2000/svg" xmlns:svg="http://www.w3.org/2000/svg" id="svg2" width="32" height="32" version="1.1"><metadata id="metadata7"/><g id="layer1" transform="translate(0,-1020.3622)"><g id="text3794" style="font-size:65.80976868px;font-style:normal;font-variant:normal;font-weight:400;font-stretch:normal;text-align:start;line-height:125%;letter-spacing:0;word-spacing:0;writing-mode:lr-tb;text-anchor:start;fill:#000;fill-opacity:1;stroke:none;font-family:DejaVu Serif;-inkscape-font-specification:DejaVu Serif"><g id="g3033" transform="matrix(0.3,0,0,0.29999999,1.0000001,735.65355)"><path style="fill:none;stroke:#000;stroke-width:7.08010149;stroke-linecap:round;stroke-linejoin:round;stroke-miterlimit:4;stroke-opacity:1;stroke-dasharray:none" id="path3788" d="m 95.812973,52.977398 c 0,23.821982 -19.786406,43.133514 -44.194176,43.133514 -24.407769,0 -44.1941754,-19.311532 -44.1941754,-43.133514 0,-23.821982 19.7864064,-43.1335145 44.1941754,-43.1335145 24.40777,0 44.194176,19.3115325 44.194176,43.1335145 z" transform="matrix(1.046518,0,0,1.0722521,-4.0200001,945.55706)"/><path style="font-weight:700;-inkscape-font-specification:DejaVu Serif Bold" id="path3030" d="m 43.23586,982.53185 c -6e-6,-1.73517 0.599822,-3.1919 1.799486,-4.37018 1.199648,-1.19961 2.667084,-1.79944 4.402313,-1.79949 1.69236,5e-5 3.127663,0.59988 4.305913,1.79949 1.19964,1.17828 1.799468,2.63501 1.799486,4.37018 -1.8e-5,1.69241 -0.599846,3.13843 -1.799486,4.33804 -1.17825,1.17828 -2.613553,1.76739 -4.305913,1.76736 -1.735229,3e-5 -3.202665,-0.58908 -4.402313,-1.76736 -1.199664,-1.17819 -1.799492,-2.6242 -1.799486,-4.33804 m 12.435733,39.94215 4.884318,0 0,3.8882 -21.111825,0 0,-3.8882 4.852185,0 0,-26.38174 -4.852185,0 0,-3.88818 16.227507,0 0,30.26992"/></g></g></g></svg>