<svg xmlns="http://www.w3.org/2000/svg" xmlns:svg="http://www.w3.org/2000/svg" id="svg2" width="32" height="32" version="1.1"><metadata id="metadata7"/><g id="layer1" transform="translate(0,-1020.3622)"><path id="path3776" d="m 70.397759,46.896771 -70.7919475,-1e-6 35.3959735,-61.307624 z" transform="matrix(0.39199374,0,0,0.45263538,2.2795195,1029.0101)" style="fill:none;stroke:#000;stroke-width:4.74805981;stroke-linecap:round;stroke-linejoin:round;stroke-miterlimit:4;stroke-opacity:1;stroke-dasharray:none"/><g id="text3780" transform="matrix(0.3,0,0,0.3,0.7,735.95354)" style="font-size:67.27989197px;font-style:normal;font-variant:normal;font-weight:700;font-stretch:normal;text-align:start;line-height:125%;letter-spacing:0;word-spacing:0;writing-mode:lr-tb;text-anchor:start;fill:#000;fill-opacity:1;stroke:none;font-family:DejaVu Serif;-inkscape-font-specification:DejaVu Serif Bold"><path id="path3818" d="m 43.774638,1031.0876 c -8e-6,-1.7083 0.602269,-3.1756 1.806833,-4.4021 1.226445,-1.2264 2.693811,-1.8397 4.402103,-1.8397 1.708262,0 3.175628,0.6133 4.402102,1.8397 1.226436,1.2265 1.839664,2.6938 1.839685,4.4021 -2.1e-5,1.7302 -0.613249,3.2085 -1.839685,4.435 -1.226474,1.2264 -2.69384,1.8396 -4.402102,1.8396 -1.708292,0 -3.175658,-0.6132 -4.402103,-1.8396 -1.204564,-1.2265 -1.806841,-2.7048 -1.806833,-4.435 m 0.0657,-43.72536 12.319317,0 -3.90933,27.66096 0,6.2418 -4.56636,0 0,-6.2418 -3.843627,-27.66096"/></g></g></svg>