<svg xmlns="http://www.w3.org/2000/svg" xmlns:svg="http://www.w3.org/2000/svg" xmlns:xlink="http://www.w3.org/1999/xlink" id="svg2" width="16" height="16" version="1.1"><defs id="defs4"><linearGradient id="linearGradient3031" x1="6" x2="6" y1="11" y2="8" gradientTransform="matrix(-0.99999962,0,0,1,10.999997,2.0499758)" gradientUnits="userSpaceOnUse" xlink:href="#linearGradient4404"/><linearGradient id="linearGradient4404"><stop style="stop-color:#000;stop-opacity:.15753424" id="stop4406" offset="0"/><stop style="stop-color:#000;stop-opacity:0" id="stop4408" offset="1"/></linearGradient><linearGradient id="linearGradient3033" x1="6" x2="6" y1="5" y2="8" gradientTransform="matrix(-0.99999962,0,0,1,10.999997,1034.4122)" gradientUnits="userSpaceOnUse" xlink:href="#linearGradient4505"/><linearGradient id="linearGradient4505"><stop id="stop4507" offset="0" style="stop-color:#fff;stop-opacity:.15753424"/><stop id="stop4509" offset="1" style="stop-color:#fff;stop-opacity:0"/></linearGradient></defs><metadata id="metadata7"/><g id="layer1" transform="translate(0,-1036.3622)"><rect style="fill:#eeeeec;fill-opacity:1;stroke:none" id="rect4163" width="14" height="14" x="2" y="1038.362"/><path id="path3897" d="M 28,14 C 17.607695,14 17.607695,14 22.803847,5.0000001 28,-4 28,-4 33.196152,4.9999999 38.392305,14 38.392305,14 28,14 z" transform="matrix(0,1.219616,-0.6984127,0,44.777778,1009.213)" style="fill:#4e9a06;fill-opacity:1;stroke:#2a5703;stroke-width:1.08350861;stroke-linecap:round;stroke-linejoin:round;stroke-miterlimit:4;stroke-opacity:1;stroke-dasharray:none"/><path style="fill:none;stroke:#2e3436;stroke-width:1px;stroke-linecap:square;stroke-linejoin:miter;stroke-opacity:1" id="path4099" d="m 2.5,1038.8622 c 13,0 13,0 13,0"/><path style="fill:#ef2929;stroke:#fce94f;stroke-width:.99999994000000003px;stroke-linecap:square;stroke-linejoin:miter;stroke-opacity:1" id="path4103" d="m 8,1041.8622 c 7.518518,0 7.518518,0 7.518518,0"/><path id="path4105" d="m 9,1044.8622 c 6.5,0 6.5,0 6.5,0" style="fill:none;stroke:#2e3436;stroke-width:1px;stroke-linecap:square;stroke-linejoin:miter;stroke-opacity:1"/><path style="fill:none;stroke:#2e3436;stroke-width:1px;stroke-linecap:square;stroke-linejoin:miter;stroke-opacity:1" id="path4111" d="m 2.5,1050.8622 c 13,0 13,0 13,0"/><path style="fill:#ef2929;stroke:#fce94f;stroke-width:.99999994000000003px;stroke-linecap:square;stroke-linejoin:miter;stroke-opacity:1" id="path4187" d="m 8,1042.8622 c 7.518518,0 7.518518,0 7.518518,0"/><path id="path4185" d="m 8,1040.8622 c 7.518518,0 7.518518,0 7.518518,0" style="fill:#ef2929;stroke:#fce94f;stroke-width:.99999994000000003px;stroke-linecap:square;stroke-linejoin:miter;stroke-opacity:1"/><path style="fill:#fff;fill-opacity:1;stroke:#888a85;stroke-width:.99999982;stroke-linecap:round;stroke-linejoin:round;stroke-miterlimit:4;stroke-opacity:1;stroke-dasharray:none" id="path2987" d="m 7.388367,1037.5689 c -0.471232,0.074 -0.629062,0.8236 -0.677227,2.2678 -0.0067,-2e-4 -0.01262,0 -0.01935,0 l -5.5726114,0 c -0.343025,0 -0.619179,0.2022 -0.619179,0.4537 l 0,4.082 c 0,0.2513 0.276154,0.4535 0.619179,0.4535 l 5.5726114,0 c 0.0067,0 0.01267,10e-5 0.01935,0 0.10323,3.0955 0.677799,2.7404 3.869869,0.3829 3.891981,-2.8745 3.891981,-2.8804 0,-5.7548 -1.702742,-1.2575 -2.653884,-1.9687 -3.192642,-1.8851 z"/><g id="g4385" transform="matrix(-1,0,0,1,14.999995,-2.0500382)"><path id="path3873" d="M 28,14 C 17.607695,14 17.607695,14 22.803847,5.0000001 28,-4 28,-4 33.196152,4.9999999 38.392305,14 38.392305,14 28,14 z" transform="matrix(0,-0.27296167,0.22222222,0,3.8888889,1052.0051)" style="fill:#60b60e;fill-opacity:1;stroke:none"/><rect id="rect4383" width="7" height="2" x="6" y="7" transform="translate(0,1036.3622)" style="color:#000;fill:#60b60e;fill-opacity:1;stroke:none;stroke-width:.5;marker:none;visibility:visible;display:inline;overflow:visible;enable-background:accumulate"/></g><g id="g4422" transform="matrix(-1,0,0,1,14.999995,-2.0500382)"><path id="rect4426" d="m 6,7 7,0 0,2 -7,0 z M 7,7.9999732 C 7,10.836674 7,10.836674 5,9.4183238 3,7.9999732 3,7.9999732 5,6.5816229 7,5.1632723 7,5.1632723 7,7.9999732 z" transform="translate(0,1036.3622)" style="color:#000;fill:url(#linearGradient3031);fill-opacity:1;stroke:none;stroke-width:.5;marker:none;visibility:visible;display:inline;overflow:visible;enable-background:accumulate"/></g><g id="g4499" transform="matrix(-1,0,0,1,14.999995,1.9499618)"><path style="color:#000;fill:url(#linearGradient3033);fill-opacity:1;stroke:none;stroke-width:.5;marker:none;visibility:visible;display:inline;overflow:visible;enable-background:accumulate" id="path4501" d="m 6,1039.3622 7,0 0,2 -7,0 z m 1,1 c 0,2.8367 0,2.8367 -2,1.4183 -2,-1.4183 -2,-1.4183 0,-2.8367 2,-1.4183 2,-1.4183 2,1.4184 z"/></g><path id="path3030" d="m 2.5,1047.8622 c 13,0 13,0 13,0" style="fill:none;stroke:#2e3436;stroke-width:1px;stroke-linecap:square;stroke-linejoin:miter;stroke-opacity:1"/><path style="fill:#4e9a06;fill-opacity:1;stroke:#2a5703;stroke-width:1.08350861;stroke-linecap:round;stroke-linejoin:round;stroke-miterlimit:4;stroke-opacity:1;stroke-dasharray:none" id="path4183" d="M 28,14 C 17.607695,14 17.607695,14 22.803847,5.0000001 28,-4 28,-4 33.196152,4.9999999 38.392305,14 38.392305,14 28,14 z" transform="matrix(0,1.219616,-0.6984127,0,30.777778,1009.213)"/></g></svg>