<svg xmlns="http://www.w3.org/2000/svg" xmlns:svg="http://www.w3.org/2000/svg" id="svg548" width="16" height="16" x="0" y="0" enable-background="new 0 0 16 16" version="1.1" viewBox="0 0 16 16" xml:space="preserve"><metadata id="metadata16"/><path id="path3" fill="#FFF" d="M1.058,15.339l13.509,0.02c-0.736-1.84-3.162-8.883,0.156-14.697C3.471,1.236,1.353,13.14,1.058,15.339z"/><g id="g5"><g id="g7"><path id="path9" fill="#999" d="M15.049,16C15.049,16,15.049,16,15.049,16L0.698,15.979c-0.089-0.001-0.175-0.038-0.235-0.104 c-0.061-0.065-0.09-0.154-0.083-0.244C0.392,15.478,1.848,0.214,15.297,0.002c0.11-0.016,0.228,0.061,0.284,0.164 c0.058,0.103,0.055,0.229-0.01,0.328c-3.947,6.179-0.629,14.148-0.264,14.979c0.047,0.056,0.074,0.127,0.074,0.205 c0,0.178-0.144,0.321-0.32,0.321C15.059,16,15.054,16,15.049,16z M1.058,15.339l13.509,0.02c-0.736-1.84-3.162-8.883,0.156-14.697 C3.471,1.236,1.353,13.14,1.058,15.339z"/></g><path id="path2995_3_" fill="#21DE08" d="M2.251,14.441c0,0,1.543-11.499,11.188-12.837c-2.991,6.231-0.145,12.852-0.145,12.852L2.251,14.441z"/></g></svg>