<svg xmlns="http://www.w3.org/2000/svg" xmlns:svg="http://www.w3.org/2000/svg" xmlns:xlink="http://www.w3.org/1999/xlink" id="svg548" width="16" height="16" x="0" y="0" enable-background="new 0 0 16 16" version="1.1" viewBox="0 0 16 16" xml:space="preserve"><metadata id="metadata16"/><defs id="defs14"><linearGradient id="linearGradient4514"><stop style="stop-color:#fff;stop-opacity:.15753424" id="stop4516" offset="0"/><stop style="stop-color:#fff;stop-opacity:0" id="stop4518" offset="1"/></linearGradient><linearGradient id="linearGradient4506"><stop style="stop-color:#000;stop-opacity:.15753424" id="stop4508" offset="0"/><stop style="stop-color:#000;stop-opacity:0" id="stop4510" offset="1"/></linearGradient><linearGradient id="linearGradient4512" x1="11.5" x2="9" y1="14" y2="8" gradientUnits="userSpaceOnUse" xlink:href="#linearGradient4506"/><linearGradient id="linearGradient4520" x1="10" x2="12" y1="1.5" y2="8" gradientUnits="userSpaceOnUse" xlink:href="#linearGradient4514"/></defs><path id="path3" fill="#FFF" d="M1.058,15.339l13.509,0.02c-0.736-1.84-3.162-8.883,0.156-14.697C3.471,1.236,1.353,13.14,1.058,15.339z"/><g id="g7"><path style="fill:#999" id="path9" d="m 15.049,16 c 0,0 0,0 0,0 L 0.698,15.979 C 0.609,15.978 0.523,15.941 0.463,15.875 0.402,15.81 0.373,15.721 0.38,15.631 0.392,15.478 1.848,0.214 15.297,0.002 c 0.11,-0.016 0.228,0.061 0.284,0.164 0.058,0.103 0.055,0.229 -0.01,0.328 -3.947,6.179 -0.629,14.148 -0.264,14.979 0.047,0.056 0.074,0.127 0.074,0.205 0,0.178 -0.144,0.321 -0.32,0.321 C 15.059,16 15.054,16 15.049,16 z M 1.058,15.339 14.567,15.359 C 13.831,13.519 11.405,6.476 14.723,0.662 3.471,1.236 1.353,13.14 1.058,15.339 z"/></g><path style="fill:#2c4bc4;fill-opacity:1" id="path2995_3_" d="m 2.251,14.441 c 0,0 1.543,-11.499 11.188,-12.837 -2.991,6.231 -0.145,12.852 -0.145,12.852 L 2.251,14.441 z"/><path id="path4502" d="m 2.251,14.441 c 0,0 1.543,-11.499 11.188,-12.837 -2.991,6.231 -0.145,12.852 -0.145,12.852 L 2.251,14.441 z" style="fill:url(#linearGradient4512);fill-opacity:1"/><path style="fill:url(#linearGradient4520);fill-opacity:1" id="path4504" d="m 2.251,14.441 c 0,0 1.543,-11.499 11.188,-12.837 -2.991,6.231 -0.145,12.852 -0.145,12.852 L 2.251,14.441 z"/></svg>