<svg xmlns="http://www.w3.org/2000/svg" xmlns:svg="http://www.w3.org/2000/svg" id="svg2" width="16" height="16" version="1.1"><metadata id="metadata7"/><g id="layer1" transform="translate(0,-1036.3622)"><rect style="fill:#eeeeec;fill-opacity:1;stroke:none;stroke-width:1;stroke-linecap:square;stroke-linejoin:round;stroke-miterlimit:4;stroke-opacity:1;stroke-dasharray:none" id="rect4163" width="14" height="14" x="1" y="1" transform="translate(0,1036.3622)"/><path id="path3897" d="M 28,14 C 17.607695,14 17.607695,14 22.803847,5.0000001 28,-4 28,-4 33.196152,4.9999999 38.392305,14 38.392305,14 28,14 z" transform="matrix(0,1.219616,-0.6984127,0,44.777778,1009.213)" style="fill:#4e9a06;fill-opacity:1;stroke:#2a5703;stroke-width:1.08350861;stroke-linecap:round;stroke-linejoin:round;stroke-miterlimit:4;stroke-opacity:1;stroke-dasharray:none"/><path style="fill:none;stroke:#2e3436;stroke-width:1px;stroke-linecap:square;stroke-linejoin:miter;stroke-opacity:1" id="path4099" d="m 1.5,1037.8622 c 13,0 13,0 13,0"/><path style="fill:#204a87;stroke:#ef2929;stroke-width:1px;stroke-linecap:square;stroke-linejoin:miter;stroke-opacity:1" id="path4103" d="m 1.4821429,1040.8622 c 13.0357141,0 13.0357141,0 13.0357141,0"/><path id="path4105" d="m 1.5185185,1043.8622 c 12.9629625,0 12.9629625,0 12.9629625,0" style="fill:none;stroke:#3465a4;stroke-width:1px;stroke-linecap:square;stroke-linejoin:miter;stroke-opacity:1"/><path id="path4109" d="m 1.5185185,1046.8622 c 12.9629625,0 12.9629625,0 12.9629625,0" style="fill:none;stroke:#75507b;stroke-width:1px;stroke-linecap:square;stroke-linejoin:miter;stroke-opacity:1"/><path style="fill:none;stroke:#2e3436;stroke-width:1px;stroke-linecap:square;stroke-linejoin:miter;stroke-opacity:1" id="path4111" d="m 1.5,1049.8622 c 13,0 13,0 13,0"/></g></svg>