<svg xmlns="http://www.w3.org/2000/svg" xmlns:svg="http://www.w3.org/2000/svg" xmlns:xlink="http://www.w3.org/1999/xlink" id="svg2" width="16" height="16" version="1.1"><defs id="defs4"><linearGradient id="linearGradient68947"><stop style="stop-color:#000;stop-opacity:.12156863" id="stop68943" offset="0"/><stop style="stop-color:#000;stop-opacity:.24705882" id="stop68945" offset="1"/></linearGradient><radialGradient id="radialGradient68949" cx="7.498" cy="6.995" r="5.474" fx="7.498" fy="6.995" gradientTransform="matrix(0.87021707,0.45217807,-0.50481451,0.78692796,4.1897748,-1.7802782)" gradientUnits="userSpaceOnUse" xlink:href="#linearGradient68947"/></defs><metadata id="metadata7"/><g id="layer1" transform="translate(0,-1036.3622)"><rect style="fill:#2e3436;fill-opacity:1;stroke:#000;stroke-width:1;stroke-linecap:round;stroke-linejoin:miter;stroke-miterlimit:4;stroke-dasharray:none;stroke-opacity:1" id="rect2987" width="1.764" height="5.291" x="-733.675" y="747.692" rx="1" ry="1" transform="matrix(0.70709125,-0.70712231,0.70709125,0.70712231,0,0)"/><path style="fill:none;stroke:#000;stroke-width:1.99999988;stroke-linecap:butt;stroke-linejoin:miter;stroke-miterlimit:4;stroke-dasharray:none;stroke-opacity:1" id="path3757" d="M 10.013215,1046.3622 C 14,1050.3492 14,1050.3492 14,1050.3492"/><path style="fill:url(#radialGradient68949);fill-opacity:1;stroke:#000;stroke-width:.94884175;stroke-linecap:round;stroke-linejoin:miter;stroke-miterlimit:4;stroke-opacity:1;stroke-dasharray:none" id="path2985" d="M 12,6.5 A 5,4.5 0 0 1 7,11 5,4.5 0 0 1 2,6.5 5,4.5 0 0 1 7,2 5,4.5 0 0 1 12,6.5 Z" transform="matrix(0.86588083,-0.49991653,0.55546279,0.96208979,-3.171674,1040.108)"/><rect style="fill:#000;fill-opacity:1;stroke:none" id="rect3760" width="5" height="1" x="4" y="1043.362"/><rect id="rect96799" width="5" height="1" x="4" y="1041.362" style="fill:#000;fill-opacity:1;stroke:none"/></g></svg>