<svg xmlns="http://www.w3.org/2000/svg" xmlns:svg="http://www.w3.org/2000/svg" xmlns:xlink="http://www.w3.org/1999/xlink" id="svg548" width="24" height="24" x="0" y="0" enable-background="new 0 0 24 24" version="1.1" viewBox="0 0 24 24" xml:space="preserve"><metadata id="metadata3007"/><defs id="defs3005"><linearGradient id="linearGradient875"><stop id="stop871" offset="0" style="stop-color:#243ea3;stop-opacity:1"/><stop id="stop873" offset="1" style="stop-color:#5873da;stop-opacity:1"/></linearGradient><linearGradient id="linearGradient5067"><stop style="stop-color:#000;stop-opacity:.15753424" id="stop5069" offset="0"/><stop style="stop-color:#000;stop-opacity:0" id="stop5071" offset="1"/></linearGradient><linearGradient id="linearGradient5073" x1="15" x2="12.5" y1="21.5" y2="11.5" gradientTransform="matrix(1.2395694,0,0,1.1444028,21.297859,-1.7705992)" gradientUnits="userSpaceOnUse" xlink:href="#linearGradient5067"/><linearGradient id="linearGradient877" x1="13.5" x2="13.5" y1="24" y2="0" gradientTransform="matrix(0.87638123,0,0,0.87638123,1.4841582,0.98437829)" gradientUnits="userSpaceOnUse" xlink:href="#linearGradient875"/></defs><path id="path3002" d="m 21.25269,21.999123 v 0 L 2.4166278,21.971079 C 2.2991927,21.970203 2.1870159,21.921125 2.1072652,21.83524 2.0275146,21.747602 1.9880773,21.632796 1.9977176,21.515361 2.0152452,21.313794 3.9257562,1.2814715 21.576951,1.0027823 c 0.145479,-0.0210331 0.29797,0.07975 0.373338,0.2155897 0.07537,0.1349627 0.07099,0.3005988 -0.01315,0.4303032 -5.18029,8.1091553 -0.824675,18.5696408 -0.347047,19.6616118 0.06135,0.07274 0.09815,0.166513 0.09815,0.269926 0,0.232241 -0.188423,0.419787 -0.419788,0.419787 -0.0035,0 -0.0096,0 -0.01578,-8.77e-4 z" style="fill:url(#linearGradient877);fill-opacity:1;stroke-width:3.50552;stroke-miterlimit:4;stroke-dasharray:none"/><path id="path4555" d="M 25.5,23.001143 C 25.5,23.001143 28.365885,3.2922387 46.267747,1 40.714476,11.678422 46,23.02632 46,23.02632 Z" style="fill:url(#linearGradient5073);fill-opacity:1;stroke-width:1.19103"/></svg>