<svg xmlns="http://www.w3.org/2000/svg" xmlns:svg="http://www.w3.org/2000/svg" xmlns:xlink="http://www.w3.org/1999/xlink" id="svg2" width="24" height="24" version="1.1"><defs id="defs4"><linearGradient id="linearGradient4100"><stop style="stop-color:#fff;stop-opacity:.15753424" id="stop4102" offset="0"/><stop style="stop-color:#fff;stop-opacity:0" id="stop4104" offset="1"/></linearGradient><linearGradient id="linearGradient4084"><stop style="stop-color:#000;stop-opacity:.15753424" id="stop4086" offset="0"/><stop style="stop-color:#000;stop-opacity:0" id="stop4088" offset="1"/></linearGradient><linearGradient id="linearGradient4095" x1="14" x2="14" y1="21" y2="14" gradientTransform="translate(-6,1028.3622)" gradientUnits="userSpaceOnUse" xlink:href="#linearGradient4084"/><linearGradient id="linearGradient4106" x1="12" x2="12" y1="6" y2="14" gradientTransform="translate(0,1028.3622)" gradientUnits="userSpaceOnUse" xlink:href="#linearGradient4100"/><linearGradient id="linearGradient4108" x1="11" x2="11" y1="1049.362" y2="1042.362" gradientTransform="translate(-6,0)" gradientUnits="userSpaceOnUse" xlink:href="#linearGradient4084"/></defs><metadata id="metadata7"/><g id="layer1" transform="translate(0,-1028.3622)"><path style="fill:#fff;fill-opacity:1;stroke:#888a85;stroke-width:.99999994000000003;stroke-linecap:round;stroke-linejoin:round;stroke-miterlimit:4;stroke-opacity:1;stroke-dasharray:none" id="path3884" d="m 12,1032.8622 c -1.291133,0 -2.5875124,1.5759 -5.1697769,4.7188 -4.2357679,5.1553 -4.8739666,6.0832 0.6876058,6.25 l 0,6.0312 c 0,0.554 0.3634633,1 0.8149402,1 l 7.3344619,0 c 0.451476,0 0.81494,-0.446 0.81494,-1 l 0,-6.0312 c 5.561572,-0.1668 4.923374,-1.0947 0.687606,-6.25 -2.582265,-3.1429 -3.878645,-4.7188 -5.169777,-4.7188 z"/><rect style="fill:#fff;fill-opacity:1;stroke:#888a85;stroke-width:1;stroke-linecap:round;stroke-linejoin:round;stroke-miterlimit:4;stroke-opacity:1;stroke-dasharray:none" id="rect3886" width="21" height="2" x="1.5" y="1029.862" rx="1" ry="1"/><path id="path3897" d="M 28,14 C 17.607695,14 17.607695,14 22.803847,5.0000001 28,-4 28,-4 33.196152,4.9999999 38.392305,14 38.392305,14 28,14 z" transform="matrix(1.219616,0,0,0.6984127,11.850752,1034.0844)" style="fill:#4e9a06;fill-opacity:1;stroke:#2a5703;stroke-width:1.08350861;stroke-linecap:round;stroke-linejoin:round;stroke-miterlimit:4;stroke-opacity:1;stroke-dasharray:none"/><path style="fill:#60b60e;fill-opacity:1;stroke:none" id="path4058" d="M 28,14 C 17.607695,14 17.607695,14 22.803847,5.0000001 28,-4 28,-4 33.196152,4.9999999 38.392305,14 38.392305,14 28,14 z" transform="matrix(0.69692343,0,0,0.50793651,-7.5138561,1035.7511)"/><rect style="color:#000;fill:#60b60e;stroke:none;stroke-width:.5;stroke-linecap:butt;stroke-linejoin:round;stroke-miterlimit:4;stroke-opacity:1;stroke-dasharray:none;stroke-dashoffset:0;marker:none;visibility:visible;display:inline;overflow:visible;enable-background:accumulate;fill-opacity:1" id="rect4060" width="6" height="8" x="9" y="13" transform="translate(0,1028.3622)"/><g id="g4066" transform="translate(10,0)" style="fill:url(#linearGradient4108);fill-opacity:1;stroke:none"><path id="rect4064" d="m -1,1041.3622 6,0 0,8 -6,0 z m 3,1.5 c -7.2426409,0 -7.2426409,0 -3.6213208,-4.5714 C 2,1033.7194 2,1033.7194 5.62132,1038.2908 c 3.621321,4.5714 3.621321,4.5714 -3.62132,4.5714 z" style="color:#000;fill:url(#linearGradient4095);fill-opacity:1;stroke-width:.5;marker:none;visibility:visible;display:inline;overflow:visible;enable-background:accumulate"/></g><g id="g4070" transform="translate(-2,0)"><path id="rect4074" d="m 11,1041.3622 6,0 0,8 -6,0 z m 3,1.5 c -7.2426409,0 -7.2426409,0 -3.621321,-4.5714 3.621321,-4.5714 3.621321,-4.5714 7.242641,0 3.621321,4.5714 3.621321,4.5714 -3.62132,4.5714 z" style="color:#000;fill:url(#linearGradient4106);fill-opacity:1;stroke:none;stroke-width:.5;marker:none;visibility:visible;display:inline;overflow:visible;enable-background:accumulate"/></g></g></svg>