<svg xmlns="http://www.w3.org/2000/svg" xmlns:svg="http://www.w3.org/2000/svg" xmlns:xlink="http://www.w3.org/1999/xlink" id="svg2" width="24" height="24" version="1.1"><defs id="defs4"><linearGradient id="linearGradient3835"><stop style="stop-color:#000;stop-opacity:.15686275" id="stop3837" offset="0"/><stop id="stop3855" offset="1" style="stop-color:#000;stop-opacity:0"/></linearGradient><linearGradient id="linearGradient3024" x1="-4" x2="-4" y1="1040.362" y2="1046.362" gradientTransform="matrix(-1,0,0,1,10.995535,-6)" gradientUnits="userSpaceOnUse" xlink:href="#linearGradient3857"/><linearGradient id="linearGradient3857"><stop id="stop3859" offset="0" style="stop-color:#fff;stop-opacity:.15686275"/><stop id="stop3863" offset="1" style="stop-color:#fff;stop-opacity:0"/></linearGradient><linearGradient id="linearGradient4100"><stop style="stop-color:#fff;stop-opacity:.15753424" id="stop4102" offset="0"/><stop style="stop-color:#fff;stop-opacity:0" id="stop4104" offset="1"/></linearGradient><linearGradient id="linearGradient4108" x1="11" x2="11" y1="1049.362" y2="1042.362" gradientTransform="translate(0.99999997,3)" gradientUnits="userSpaceOnUse" xlink:href="#linearGradient4084"/><linearGradient id="linearGradient4084"><stop style="stop-color:#000;stop-opacity:.15753424" id="stop4086" offset="0"/><stop style="stop-color:#000;stop-opacity:0" id="stop4088" offset="1"/></linearGradient><linearGradient id="linearGradient4208"><stop style="stop-color:#000;stop-opacity:.15753424" id="stop4210" offset="0"/><stop style="stop-color:#000;stop-opacity:0" id="stop4212" offset="1"/></linearGradient><linearGradient id="linearGradient3105" x1="11" x2="11" y1="1049.362" y2="1042.362" gradientTransform="matrix(0,-1,1,0,-1036.8622,1042.8622)" gradientUnits="userSpaceOnUse" xlink:href="#linearGradient4084"/><linearGradient id="linearGradient3116" x1="12" x2="12" y1="6" y2="14" gradientTransform="matrix(0,-1,1,0,4.9993325,1053.3622)" gradientUnits="userSpaceOnUse" xlink:href="#linearGradient4100"/><linearGradient id="linearGradient3118" x1="14" x2="14" y1="21" y2="14" gradientTransform="matrix(0,-1,1,0,-7.0006675,1047.3622)" gradientUnits="userSpaceOnUse" xlink:href="#linearGradient4084"/><linearGradient id="linearGradient3120" x1="11" x2="11" y1="1049.362" y2="1042.362" gradientTransform="matrix(0,-1,1,0,-1035.3622,1047.3622)" gradientUnits="userSpaceOnUse" xlink:href="#linearGradient4084"/></defs><metadata id="metadata7"/><g id="layer1" transform="translate(0,-1028.3622)"><rect style="fill:#eeeeec;fill-opacity:1;stroke:none" id="rect4165" width="22" height="22" x="2" y="1030.362"/><path id="path3897" d="M 28,14 C 17.607695,14 17.607695,14 22.803847,5.0000001 28,-4 28,-4 33.196152,4.9999999 38.392305,14 38.392305,14 28,14 z" transform="matrix(1.219616,0,0,0.6984127,11.850752,1034.0844)" style="fill:#4e9a06;fill-opacity:1;stroke:#2a5703;stroke-width:1.08350861;stroke-linecap:round;stroke-linejoin:round;stroke-miterlimit:4;stroke-opacity:1;stroke-dasharray:none"/><path style="fill:none;stroke:#2e3436;stroke-width:1px;stroke-linecap:square;stroke-linejoin:miter;stroke-opacity:1" id="path4113" d="m 2.5,1030.8622 c 21,0 21,0 21,0"/><path style="fill:none;stroke:#2e3436;stroke-width:1px;stroke-linecap:square;stroke-linejoin:miter;stroke-opacity:1" id="path4117" d="m 13,1039.8622 c 10.5,0 10.5,0 10.5,0"/><path id="path4119" d="m 13,1033.8622 c 10.5,0 10.5,0 10.5,0" style="fill:none;stroke:#2e3436;stroke-width:1px;stroke-linecap:square;stroke-linejoin:miter;stroke-opacity:1"/><path style="fill:none;stroke:#2e3436;stroke-width:1px;stroke-linecap:square;stroke-linejoin:miter;stroke-opacity:1" id="path4121" d="m 13,1042.8622 c 10.5,0 10.5,0 10.5,0"/><path id="path4123" d="m 2.5,1048.8622 c 21,0 21,0 21,0" style="fill:none;stroke:#2e3436;stroke-width:1px;stroke-linecap:square;stroke-linejoin:miter;stroke-opacity:1"/><path style="fill:none;stroke:#2e3436;stroke-width:1px;stroke-linecap:square;stroke-linejoin:miter;stroke-opacity:1" id="path4127" d="m 2.5,1051.8622 c 21,0 21,0 21,0"/><rect style="color:#000;fill:#fce94f;stroke:none;stroke-width:.5;stroke-linecap:butt;stroke-linejoin:round;stroke-miterlimit:4;stroke-opacity:1;stroke-dasharray:none;stroke-dashoffset:0;marker:none;visibility:visible;display:inline;overflow:visible;enable-background:accumulate" id="rect3124" width="22" height="3" x="2" y="7" transform="translate(0,1028.3622)"/><path style="fill:#fff;fill-opacity:1;stroke:#888a85;stroke-width:.99999994;stroke-linecap:round;stroke-linejoin:round;stroke-miterlimit:4;stroke-opacity:1;stroke-dasharray:none" id="path3884" d="m 18.5,1037.3622 c 0,-1.2911 -1.5759,-2.5875 -4.7188,-5.1698 -5.1553,-4.2357 -6.0832,-4.8739 -6.25,0.6876 l -6.0312,0 c -0.554,0 -1.00000003,0.3635 -1.00000003,0.815 l 0,7.3344 c 0,0.4515 0.44600003,0.815 1.00000003,0.815 l 6.0312,0 c 0.1668,5.5615 1.0947,4.9233 6.25,0.6876 3.1429,-2.5823 4.7188,-3.8787 4.7188,-5.1698 z"/><path style="fill:#60b60e;fill-opacity:1;stroke:none" id="path4058" d="M 28,14 C 17.607695,14 17.607695,14 22.803847,5.0000001 28,-4 28,-4 33.196152,4.9999999 38.392305,14 38.392305,14 28,14 z" transform="matrix(0,0.69692343,-0.50793651,0,15.6111,1017.8483)"/><rect style="color:#000;fill:#60b60e;fill-opacity:1;stroke:none;stroke-width:.5;marker:none;visibility:visible;display:inline;overflow:visible;enable-background:accumulate" id="rect4060" width="6" height="8" x="1034.362" y="-10" transform="matrix(0,1,-1,0,0,0)"/><g id="g4066" transform="matrix(0,1,-1,0,1051.3622,1035.3622)" style="fill:url(#linearGradient3120);fill-opacity:1;stroke:none"><path id="rect4064" d="m -1,1041.3622 6,0 0,8 -6,0 z m 3,1.5 c -7.2426409,0 -7.2426409,0 -3.6213208,-4.5714 C 2,1033.7194 2,1033.7194 5.62132,1038.2908 c 3.621321,4.5714 3.621321,4.5714 -3.62132,4.5714 z" style="color:#000;fill:url(#linearGradient3118);fill-opacity:1;stroke-width:.5;marker:none;visibility:visible;display:inline;overflow:visible;enable-background:accumulate"/></g><g id="g4070" transform="matrix(0,1,-1,0,1051.3622,1023.3622)"><path id="rect4074" d="m 11,1041.3622 6,0 0,8 -6,0 z m 3,1.5 c -7.2426409,0 -7.2426409,0 -3.621321,-4.5714 3.621321,-4.5714 3.621321,-4.5714 7.242641,0 3.621321,4.5714 3.621321,4.5714 -3.62132,4.5714 z" style="color:#000;fill:url(#linearGradient3116);fill-opacity:1;stroke:none;stroke-width:.5;marker:none;visibility:visible;display:inline;overflow:visible;enable-background:accumulate"/></g><path style="fill:none;stroke:#2e3436;stroke-width:1px;stroke-linecap:square;stroke-linejoin:miter;stroke-opacity:1" id="path3122" d="m 2.5,1045.8622 c 21,0 21,0 21,0"/></g></svg>