<svg xmlns="http://www.w3.org/2000/svg" xmlns:svg="http://www.w3.org/2000/svg" xmlns:xlink="http://www.w3.org/1999/xlink" id="svg2" width="24" height="24" version="1.1"><defs id="defs4"><linearGradient id="linearGradient3857"><stop id="stop3859" offset="0" style="stop-color:#fff;stop-opacity:.15686275"/><stop id="stop3863" offset="1" style="stop-color:#fff;stop-opacity:0"/></linearGradient><linearGradient id="linearGradient3835"><stop style="stop-color:#000;stop-opacity:.15686275" id="stop3837" offset="0"/><stop id="stop3855" offset="1" style="stop-color:#000;stop-opacity:0"/></linearGradient><linearGradient id="linearGradient3849" x1="5" x2="5" y1="1052.362" y2="1046.362" gradientUnits="userSpaceOnUse" xlink:href="#linearGradient3835"/><linearGradient id="linearGradient3853" x1="-4" x2="-4" y1="1040.362" y2="1046.362" gradientUnits="userSpaceOnUse" xlink:href="#linearGradient3857"/></defs><metadata id="metadata7"/><g id="layer1" transform="translate(0,-1028.3622)"><path style="fill:#fff;stroke:#888a85;stroke-width:1.00000011999999994;stroke-linecap:round;stroke-linejoin:round;stroke-miterlimit:4;stroke-opacity:1;stroke-dasharray:none;fill-opacity:1" id="path2987" d="m 11.370535,1031.874 c 0.761061,0.1308 1.015962,1.4739 1.09375,4.0584 0.01078,-3e-4 0.02039,0 0.03125,0 l 9,0 c 0.554,0 1,0.362 1,0.8116 l 0,7.3049 c 0,0.4497 -0.446,0.8117 -1,0.8117 l -9,0 c -0.01086,0 -0.02047,2e-4 -0.03125,0 -0.166726,5.5391 -1.094675,4.9035 -6.2499995,0.6848 -6.285714,-5.1437 -6.285714,-5.1541 0,-10.2979 2.75,-2.2503 4.2861325,-3.5229 5.1562495,-3.3735 z"/><path id="path3897" d="M 28,14 C 17.607695,14 17.607695,14 22.803847,5.0000001 28,-4 28,-4 33.196152,4.9999999 38.392305,14 38.392305,14 28,14 z" transform="matrix(1.219616,0,0,0.6984127,3.8507518,1036.5844)" style="fill:#4e9a06;fill-opacity:1;stroke:#2a5703;stroke-width:1.08350861;stroke-linecap:round;stroke-linejoin:round;stroke-miterlimit:4;stroke-opacity:1;stroke-dasharray:none"/><path style="fill:#60b60e;fill-opacity:.94117647;stroke:none" id="path3820" d="M 28,14 C 17.607695,14 17.607695,14 22.803847,5.0000001 28,-4 28,-4 33.196152,4.9999999 38.392305,14 38.392305,14 28,14 z" transform="matrix(0,-0.69692343,0.50793651,0,4.3888889,1059.8761)"/><rect style="color:#000;fill:#60b60e;fill-opacity:1;stroke:none;stroke-width:.5;marker:none;visibility:visible;display:inline;overflow:visible;enable-background:accumulate" id="rect3822" width="11" height="6" x="10" y="1037.362"/><g id="g3828" transform="translate(10,-6)" style="fill:#60b60e;fill-opacity:.44214878"><path id="rect3826" d="m 0,1043.3622 11,0 0,6 -11,0 z m 1.5,3 c 0,7.2427 0,7.2427 -4.5714285,3.6214 -4.5714285,-3.6214 -4.5714285,-3.6214 -10e-8,-7.2427 C 1.5,1039.1196 1.5,1039.1196 1.5,1046.3622 z" style="color:#000;fill:url(#linearGradient3849);fill-opacity:1;stroke:none;stroke-width:.5;marker:none;visibility:visible;display:inline;overflow:visible;enable-background:accumulate"/><path style="color:#000;fill:url(#linearGradient3853);fill-opacity:1;stroke:none;stroke-width:.5;marker:none;visibility:visible;display:inline;overflow:visible;enable-background:accumulate" id="path3851" d="m 0,1043.3622 11,0 0,6 -11,0 z m 1.5,3 c 0,7.2427 0,7.2427 -4.5714285,3.6214 -4.5714285,-3.6214 -4.5714285,-3.6214 -10e-8,-7.2427 C 1.5,1039.1196 1.5,1039.1196 1.5,1046.3622 z"/></g></g></svg>