<svg xmlns="http://www.w3.org/2000/svg" xmlns:svg="http://www.w3.org/2000/svg" xmlns:xlink="http://www.w3.org/1999/xlink" id="svg548" width="24" height="24" x="0" y="0" enable-background="new 0 0 24 24" version="1.1" viewBox="0 0 24 24" xml:space="preserve"><path fill="none" d="M0,0" enable-background="new"/><g><path fill="#FFF" d="M1.604,22.99l20.23,0.029c-1.104-2.754-4.736-13.304,0.234-22.012C5.218,1.87,2.045,19.697,1.604,22.99z"/><g><g><path fill="#999" d="M22.557,23.98L22.557,23.98L1.064,23.948c-0.135-0.001-0.263-0.058-0.354-0.155 c-0.09-0.1-0.135-0.23-0.124-0.365c0.02-0.229,2.2-23.089,22.341-23.405c0.166-0.024,0.341,0.09,0.427,0.245 c0.086,0.153,0.08,0.343-0.016,0.491c-5.911,9.253-0.941,21.189-0.396,22.435c0.07,0.084,0.113,0.19,0.113,0.309 c0,0.266-0.216,0.479-0.479,0.479C22.57,23.98,22.564,23.98,22.557,23.98z M1.604,22.99l20.23,0.029 c-1.104-2.754-4.736-13.304,0.234-22.012C5.218,1.87,2.045,19.697,1.604,22.99z"/></g><path id="path2995_5_" fill="#21DE08" d="M3.391,21.646c0,0,2.311-17.222,16.753-19.225c-4.479,9.33-0.215,19.246-0.215,19.246L3.391,21.646z"/></g><g><g><path fill="#FFF" d="M16.523,12.479l-0.274-0.276L14.6,13.852l0.275,0.275c0.479,0.479,0.743,1.118,0.743,1.797 c0,0.68-0.265,1.318-0.743,1.797c-0.959,0.959-2.636,0.957-3.593,0c-0.981-0.98-0.986-2.568-0.027-3.561l2.362,2.281l0.992-7.174 l-7.344,0.879l2.116,2.138l0.224,0.224c-1.871,1.902-1.863,4.973,0.027,6.861c0.918,0.92,2.143,1.425,3.445,1.425 c1.304,0,2.526-0.505,3.444-1.425C18.423,17.469,18.423,14.378,16.523,12.479z"/></g></g></g></svg>