<svg xmlns="http://www.w3.org/2000/svg" xmlns:svg="http://www.w3.org/2000/svg" id="svg548" width="24" height="24" x="0" y="0" enable-background="new 0 0 24 24" version="1.1" viewBox="0 0 24 24" xml:space="preserve"><metadata id="metadata3007"/><path id="path2994" fill="#FFF" d="M1.604,22.989l20.23,0.03c-1.103-2.755-4.736-13.304,0.234-22.011C5.218,1.869,2.045,19.696,1.604,22.989z"/><g id="g2998"><g id="g3000"><path id="path3002" fill="#999" d="M22.557,23.979C22.557,23.979,22.557,23.979,22.557,23.979L1.064,23.947 c-0.134-0.001-0.262-0.057-0.353-0.155c-0.091-0.1-0.136-0.231-0.125-0.365c0.02-0.23,2.2-23.088,22.341-23.406 c0.166-0.024,0.34,0.091,0.426,0.246c0.086,0.154,0.081,0.343-0.015,0.491c-5.911,9.253-0.941,21.189-0.396,22.435 c0.07,0.083,0.112,0.19,0.112,0.308c0,0.265-0.215,0.479-0.479,0.479C22.571,23.98,22.564,23.98,22.557,23.979z M1.604,22.989 l20.23,0.03c-1.103-2.755-4.736-13.304,0.234-22.011C5.218,1.869,2.045,19.696,1.604,22.989z"/></g><path id="path2995_3_" fill="#21DE08" d="M3.39,21.646c0,0,2.312-17.222,16.754-19.225c-4.48,9.331-0.216,19.247-0.216,19.247L3.39,21.646z"/></g></svg>