<svg xmlns="http://www.w3.org/2000/svg" xmlns:svg="http://www.w3.org/2000/svg" xmlns:xlink="http://www.w3.org/1999/xlink" id="svg548" width="24" height="24" x="0" y="0" enable-background="new 0 0 24 24" version="1.1" viewBox="0 0 24 24" xml:space="preserve"><metadata id="metadata3007"/><defs id="defs3005"><linearGradient id="linearGradient5075"><stop style="stop-color:#fffdff;stop-opacity:.15753424" id="stop5077" offset="0"/><stop style="stop-color:#fff;stop-opacity:0" id="stop5079" offset="1"/></linearGradient><linearGradient id="linearGradient5067"><stop style="stop-color:#000;stop-opacity:.15753424" id="stop5069" offset="0"/><stop style="stop-color:#000;stop-opacity:0" id="stop5071" offset="1"/></linearGradient><linearGradient id="linearGradient5073" x1="15" x2="12.5" y1="21.5" y2="11.5" gradientUnits="userSpaceOnUse" xlink:href="#linearGradient5067"/><linearGradient id="linearGradient5081" x1="10" x2="12.5" y1="6.5" y2="14" gradientUnits="userSpaceOnUse" xlink:href="#linearGradient5075"/></defs><path id="path2994" fill="#FFF" d="M1.604,22.989l20.23,0.03c-1.103-2.755-4.736-13.304,0.234-22.011C5.218,1.869,2.045,19.696,1.604,22.989z"/><g id="g3000"><path style="fill:#999" id="path3002" d="m 22.557,23.979 c 0,0 0,0 0,0 L 1.064,23.947 C 0.93,23.946 0.802,23.89 0.711,23.792 0.62,23.692 0.575,23.561 0.586,23.427 c 0.02,-0.23 2.2,-23.088 22.341,-23.406 0.166,-0.024 0.34,0.091 0.426,0.246 0.086,0.154 0.081,0.343 -0.015,0.491 -5.911,9.253 -0.941,21.189 -0.396,22.435 0.07,0.083 0.112,0.19 0.112,0.308 0,0.265 -0.215,0.479 -0.479,0.479 -0.004,0 -0.011,0 -0.018,-0.001 z m -20.953,-0.99 20.23,0.03 C 20.731,20.264 17.098,9.715 22.068,1.008 5.218,1.869 2.045,19.696 1.604,22.989 z"/></g><path style="fill:#2c4bc4;fill-opacity:1" id="path2995_3_" d="m 3.39,21.646 c 0,0 2.312,-17.222 16.754,-19.225 -4.48,9.331 -0.216,19.247 -0.216,19.247 L 3.39,21.646 z"/><path id="path4555" d="m 3.39,21.646 c 0,0 2.312,-17.222 16.754,-19.225 -4.48,9.331 -0.216,19.247 -0.216,19.247 L 3.39,21.646 z" style="fill:url(#linearGradient5073);fill-opacity:1"/><path style="fill:url(#linearGradient5081);fill-opacity:1" id="path4557" d="m 3.39,21.646 c 0,0 2.312,-17.222 16.754,-19.225 -4.48,9.331 -0.216,19.247 -0.216,19.247 L 3.39,21.646 z"/></svg>