<svg xmlns="http://www.w3.org/2000/svg" xmlns:svg="http://www.w3.org/2000/svg" id="svg2" width="24" height="24" version="1.1"><metadata id="metadata7"/><g id="layer1" transform="translate(0,-1028.3622)"><rect style="fill:#eeeeec;fill-opacity:1;stroke:none;stroke-width:1;stroke-linecap:square;stroke-linejoin:round;stroke-miterlimit:4;stroke-opacity:1;stroke-dasharray:none" id="rect4165" width="22" height="22" x="1" y="1" transform="translate(0,1028.3622)"/><path id="path3897" d="M 28,14 C 17.607695,14 17.607695,14 22.803847,5.0000001 28,-4 28,-4 33.196152,4.9999999 38.392305,14 38.392305,14 28,14 z" transform="matrix(1.219616,0,0,0.6984127,11.850752,1034.0844)" style="fill:#4e9a06;fill-opacity:1;stroke:#2a5703;stroke-width:1.08350861;stroke-linecap:round;stroke-linejoin:round;stroke-miterlimit:4;stroke-opacity:1;stroke-dasharray:none"/><path style="fill:none;stroke:#2e3436;stroke-width:1px;stroke-linecap:square;stroke-linejoin:miter;stroke-opacity:1" id="path4113" d="m 1.5,1029.8622 c 21,0 21,0 21,0"/><path id="path4115" d="m 1.5,1032.8622 c 21,0 21,0 21,0" style="fill:#ef2929;stroke:#babdb6;stroke-width:1px;stroke-linecap:square;stroke-linejoin:miter;stroke-opacity:1"/><path style="fill:none;stroke:#babdb6;stroke-width:1px;stroke-linecap:square;stroke-linejoin:miter;stroke-opacity:1" id="path4117" d="m 1.4999999,1038.8622 c 20.9999991,0 20.9999991,0 20.9999991,0"/><path id="path4119" d="m 1.4999999,1035.8622 c 20.9999991,0 20.9999991,0 20.9999991,0" style="fill:none;stroke:#babdb6;stroke-width:1px;stroke-linecap:square;stroke-linejoin:miter;stroke-opacity:1"/><path style="fill:none;stroke:#babdb6;stroke-width:1px;stroke-linecap:square;stroke-linejoin:miter;stroke-opacity:1" id="path4121" d="m 1.4999999,1041.8622 c 20.9999991,0 20.9999991,0 20.9999991,0"/><path id="path4123" d="m 1.5,1047.8622 c 21,0 21,0 21,0" style="fill:#f57900;stroke:#babdb6;stroke-width:1px;stroke-linecap:square;stroke-linejoin:miter;stroke-opacity:1"/><path style="fill:none;stroke:#babdb6;stroke-width:1px;stroke-linecap:square;stroke-linejoin:miter;stroke-opacity:1" id="path4125" d="m 1.4999999,1044.8622 c 20.9999991,0 20.9999991,0 20.9999991,0"/><path style="fill:none;stroke:#2e3436;stroke-width:1px;stroke-linecap:square;stroke-linejoin:miter;stroke-opacity:1" id="path4127" d="m 1.5,1050.8622 c 21,0 21,0 21,0"/><path style="fill:#888a85;stroke:#888a85;stroke-width:1px;stroke-linecap:square;stroke-linejoin:miter;stroke-opacity:1" id="path4546" d="m 14.5,1029.8622 c 0,21 0,21 0,21"/><path style="fill:#3465a4;fill-opacity:1;stroke:#3465a4;stroke-width:3.77799654;stroke-linecap:round;stroke-linejoin:round;stroke-miterlimit:4;stroke-opacity:1;stroke-dasharray:none" id="path4292" d="M 28,14 C 17.607695,14 17.607695,14 22.803847,5.0000001 28,-4 28,-4 33.196152,4.9999999 38.392305,14 38.392305,14 28,14 z" transform="matrix(0,0.36782069,0.19047619,0,14.833333,1025.8965)"/><path id="path4548" d="m 6.4999994,1029.8604 c 0,21.0018 0,21.0018 0,21.0018" style="fill:#888a85;stroke:#888a85;stroke-width:1px;stroke-linecap:square;stroke-linejoin:miter;stroke-opacity:1"/><path id="path4550" d="M 28,14 C 17.607695,14 17.607695,14 22.803847,5.0000001 28,-4 28,-4 33.196152,4.9999999 38.392305,14 38.392305,14 28,14 z" transform="matrix(0,0.36781774,-0.19047619,0,6.1666667,1025.8956)" style="fill:#3465a4;fill-opacity:1;stroke:#3465a4;stroke-width:3.7780118;stroke-linecap:round;stroke-linejoin:round;stroke-miterlimit:4;stroke-opacity:1;stroke-dasharray:none"/></g></svg>