<svg xmlns="http://www.w3.org/2000/svg" xmlns:svg="http://www.w3.org/2000/svg" xmlns:xlink="http://www.w3.org/1999/xlink" id="svg2" width="24" height="24" version="1.1"><defs id="defs4"><linearGradient id="linearGradient9558"><stop style="stop-color:#000;stop-opacity:.12156863" id="stop9554" offset="0"/><stop style="stop-color:#000;stop-opacity:.24705882" id="stop9556" offset="1"/></linearGradient><radialGradient id="radialGradient9560" cx="7.356" cy="6.855" r="5.339" fx="7.356" fy="6.855" gradientTransform="matrix(0.86913421,0.45161541,-0.50352622,0.78491975,4.1889809,-1.7632862)" gradientUnits="userSpaceOnUse" xlink:href="#linearGradient9558"/></defs><metadata id="metadata7"/><g id="layer1" transform="translate(0,-1028.3622)"><rect style="fill:#000;fill-opacity:1;stroke:#000;stroke-width:1.00000012;stroke-linecap:round;stroke-linejoin:miter;stroke-miterlimit:4;stroke-dasharray:none;stroke-opacity:1" id="rect2987" width="2.857" height="8" x="-728.156" y="748.67" rx="1" ry="1" transform="matrix(0.7068911,-0.7073224,0.70685814,0.70735534,0,0)"/><path style="fill:none;stroke:#000;stroke-width:1.99999988;stroke-linecap:butt;stroke-linejoin:miter;stroke-miterlimit:4;stroke-dasharray:none;stroke-opacity:1" id="path3757" d="M 14.241789,1042.3622 C 21,1049.1249 21,1049.1249 21,1049.1249"/><path style="fill:url(#radialGradient9560);fill-opacity:1;stroke:#000;stroke-width:.67774409;stroke-linecap:round;stroke-linejoin:miter;stroke-miterlimit:4;stroke-opacity:1;stroke-dasharray:none" id="path2985" d="M 12,6.5 A 5,4.5 0 0 1 7,11 5,4.5 0 0 1 2,6.5 5,4.5 0 0 1 7,2 5,4.5 0 0 1 12,6.5 Z" transform="matrix(1.2122332,-0.69988316,0.77764788,1.3469257,-4.0403435,1034.0064)"/><rect style="fill:#000;fill-opacity:1;stroke:none" id="rect3760" width="7" height="1" x="6" y="1038.362" rx=".5" ry=".5"/><rect id="rect50338" width="7" height="1" x="6" y="1036.362" rx=".5" ry=".5" style="fill:#000;fill-opacity:1;stroke:none"/></g></svg>