<svg xmlns="http://www.w3.org/2000/svg" xmlns:svg="http://www.w3.org/2000/svg" xmlns:xlink="http://www.w3.org/1999/xlink" id="svg2" width="24" height="14" version="1.1" viewBox="0 0 24 14"><defs id="defs4"><linearGradient id="linearGradient4165" x1="8" x2="15" y1="0" y2="14" gradientTransform="translate(0,1038.3622)" gradientUnits="userSpaceOnUse" xlink:href="#Wireshark_highlight"/><linearGradient id="Wireshark_highlight"><stop style="stop-color:#fff;stop-opacity:.15753424" id="stop4516" offset="0"/><stop style="stop-color:#fff;stop-opacity:0" id="stop4518" offset="1"/></linearGradient></defs><metadata id="metadata7"/><g id="layer1" transform="translate(0,-1038.3622)"><rect id="rect4179" width="24" height="14" x="-26" y="1038.362" rx="2" ry="2" style="color:#000;display:inline;overflow:visible;visibility:visible;fill:#3465a4;fill-rule:evenodd;stroke:none;stroke-width:.5;stroke-linecap:butt;stroke-linejoin:round;stroke-miterlimit:4;stroke-dasharray:none;stroke-dashoffset:0;stroke-opacity:1;marker:none;enable-background:accumulate"/><rect id="rect4181" width="14" height="4" x="-22" y="1043.362" rx="1" ry="1" style="color:#000;display:inline;overflow:visible;visibility:visible;fill:#eeeeec;fill-rule:evenodd;stroke:none;stroke-width:.5;stroke-linecap:butt;stroke-linejoin:round;stroke-miterlimit:4;stroke-dasharray:none;stroke-dashoffset:0;stroke-opacity:1;marker:none;enable-background:accumulate"/><path id="path4183" d="m -11,1042.362 0,6.0003 4.0000669,-3.0001 z" style="fill:#eeeeec;fill-rule:evenodd;stroke:#eeeeec;stroke-width:1.99999988;stroke-linecap:butt;stroke-linejoin:round;stroke-miterlimit:4;stroke-dasharray:none;stroke-opacity:1"/><path style="color:#000;display:inline;overflow:visible;visibility:visible;fill:#729fcf;fill-rule:evenodd;stroke:none;stroke-width:.5;stroke-linecap:butt;stroke-linejoin:round;stroke-miterlimit:4;stroke-dasharray:none;stroke-dashoffset:0;stroke-opacity:1;marker:none;enable-background:accumulate;fill-opacity:1" id="rect4147" d="M 2 0 C 0.892 0 0 0.892 0 2 L 0 12 C 0 13.108 0.892 14 2 14 L 22 14 C 23.108 14 24 13.108 24 12 L 24 2 C 24 0.892 23.108 0 22 0 L 2 0 z M 15.042969 3 A 1.0000999 1.0000999 0 0 1 15.599609 3.2011719 L 19.599609 6.2011719 A 1.0000999 1.0000999 0 0 1 19.599609 7.8007812 L 15.599609 10.800781 A 1.0000999 1.0000999 0 0 1 14 10 L 14 9 L 5 9 C 4.446 9 4 8.554 4 8 L 4 6 C 4 5.446 4.446 5 5 5 L 14 5 L 14 4 A 1.0000999 1.0000999 0 0 1 14.943359 3.0019531 A 1.0000999 1.0000999 0 0 1 15.042969 3 z" transform="translate(0,1038.3622)"/><path id="path4157" d="m 2,1038.3622 c -1.108,0 -2,0.892 -2,2 l 0,10 c 0,1.108 0.892,2 2,2 l 20,0 c 1.108,0 2,-0.892 2,-2 l 0,-10 c 0,-1.108 -0.892,-2 -2,-2 l -20,0 z m 13.042969,3 a 1.0000999,1.0000999 0 0 1 0.55664,0.2012 l 4,3 a 1.0000999,1.0000999 0 0 1 0,1.5996 l -4,3 A 1.0000999,1.0000999 0 0 1 14,1048.3622 l 0,-1 -9,0 c -0.554,0 -1,-0.446 -1,-1 l 0,-2 c 0,-0.554 0.446,-1 1,-1 l 9,0 0,-1 a 1.0000999,1.0000999 0 0 1 0.943359,-0.998 1.0000999,1.0000999 0 0 1 0.09961,0 z" style="color:#000;display:inline;overflow:visible;visibility:visible;fill:url(#linearGradient4165);fill-opacity:1;fill-rule:evenodd;stroke:none;stroke-width:.5;stroke-linecap:butt;stroke-linejoin:round;stroke-miterlimit:4;stroke-dasharray:none;stroke-dashoffset:0;stroke-opacity:1;marker:none;enable-background:accumulate"/></g></svg>