<svg xmlns="http://www.w3.org/2000/svg" xmlns:svg="http://www.w3.org/2000/svg" xmlns:xlink="http://www.w3.org/1999/xlink" id="svg2" width="80" height="16" version="1.0"><defs id="defs4"><linearGradient id="linearGradient3937"><stop id="stop3939" offset="0" style="stop-color:#fff;stop-opacity:.37671232"/><stop id="stop3941" offset="1" style="stop-color:#fff;stop-opacity:0"/></linearGradient><linearGradient id="linearGradient3872"><stop id="stop3874" offset="0" style="stop-color:#f7f253;stop-opacity:1"/><stop id="stop3876" offset="1" style="stop-color:#bec00a;stop-opacity:1"/></linearGradient><linearGradient id="linearGradient3866"><stop id="stop3868" offset="0" style="stop-color:#a0ffff;stop-opacity:1"/><stop id="stop3870" offset="1" style="stop-color:#0a98b6;stop-opacity:1"/></linearGradient><linearGradient id="linearGradient3860"><stop id="stop3862" offset="0" style="stop-color:#ff5c5c;stop-opacity:.94117647"/><stop id="stop3864" offset="1" style="stop-color:#b30606;stop-opacity:1"/></linearGradient><linearGradient id="linearGradient3824"><stop id="stop3826" offset="0" style="stop-color:#d3d3d3;stop-opacity:1"/><stop id="stop3828" offset="1" style="stop-color:#adadad;stop-opacity:1"/></linearGradient><linearGradient id="linearGradient3152"><stop id="stop3154" offset="0" style="stop-color:#1ba0df;stop-opacity:1"/><stop id="stop3156" offset="1" style="stop-color:#1373a1;stop-opacity:1"/></linearGradient><linearGradient id="linearGradient1702"><stop style="stop-color:#fff;stop-opacity:.81960785" id="stop1703" offset="0"/><stop style="stop-color:#fff;stop-opacity:0" id="stop1704" offset="1"/></linearGradient><linearGradient id="linearGradient1697"><stop style="stop-color:#80b7f7;stop-opacity:1" id="stop1698" offset="0"/><stop style="stop-color:#0b63c9;stop-opacity:1" id="stop1699" offset="1"/></linearGradient><radialGradient id="radialGradient3935" cx="-.553" cy="-2.999" r="7.672" fx="-.553" fy="-2.999" gradientTransform="matrix(1.4848059,0,0,1.390317,7.1466825,8.4965104)" gradientUnits="userSpaceOnUse" xlink:href="#linearGradient3937"/><radialGradient id="radialGradient3953" cx="-.553" cy="-2.999" r="7.672" fx="-.553" fy="-2.999" gradientTransform="matrix(1.4848059,0,0,1.390317,-11.889209,8.4965104)" gradientUnits="userSpaceOnUse" xlink:href="#linearGradient3937"/><radialGradient id="radialGradient3961" cx="-.553" cy="-2.999" r="7.672" fx="-.553" fy="-2.999" gradientTransform="matrix(1.4848059,0,0,1.390317,-30.925097,8.4965104)" gradientUnits="userSpaceOnUse" xlink:href="#linearGradient3937"/><radialGradient id="radialGradient3969" cx="-.553" cy="-2.999" r="7.672" fx="-.553" fy="-2.999" gradientTransform="matrix(1.4848059,0,0,1.390317,-49.960985,8.4965104)" gradientUnits="userSpaceOnUse" xlink:href="#linearGradient3937"/><radialGradient id="radialGradient3977" cx="-.553" cy="-2.999" r="7.672" fx="-.553" fy="-2.999" gradientTransform="matrix(1.4848059,0,0,1.390317,-68.996873,8.4965104)" gradientUnits="userSpaceOnUse" xlink:href="#linearGradient3937"/><radialGradient id="radialGradient3935-4" cx="-.553" cy="-2.999" r="7.672" fx="-.553" fy="-2.999" gradientTransform="matrix(1.4848059,0,0,1.390317,7.1466825,8.4965104)" gradientUnits="userSpaceOnUse" xlink:href="#linearGradient3937-5"/><linearGradient id="linearGradient3937-5"><stop id="stop3939-0" offset="0" style="stop-color:#fff;stop-opacity:.37671232"/><stop id="stop3941-6" offset="1" style="stop-color:#fff;stop-opacity:0"/></linearGradient><radialGradient id="radialGradient3998" cx="-.553" cy="-2.999" r="7.672" fx="-.553" fy="-2.999" gradientTransform="matrix(1.4848059,0,0,1.390317,-8.8854816,7.8221053)" gradientUnits="userSpaceOnUse" xlink:href="#linearGradient3937-5"/><radialGradient id="radialGradient4054" cx="12.273" cy="-2.816" r="7.672" fx="12.273" fy="-2.816" gradientTransform="matrix(1.4848059,0,0,1.390317,-11.889209,8.4965104)" gradientUnits="userSpaceOnUse" xlink:href="#linearGradient3937"/><radialGradient id="radialGradient4058" cx="-.553" cy="-2.999" r="7.672" fx="-.553" fy="-2.999" gradientTransform="matrix(1.4848059,0,0,1.390317,-30.925097,8.4965104)" gradientUnits="userSpaceOnUse" xlink:href="#linearGradient3937"/><radialGradient id="radialGradient4062" cx="-.553" cy="-2.999" r="7.672" fx="-.553" fy="-2.999" gradientTransform="matrix(1.4848059,0,0,1.390317,-49.960985,8.4965104)" gradientUnits="userSpaceOnUse" xlink:href="#linearGradient3937"/><radialGradient id="radialGradient4066" cx="-.553" cy="-2.999" r="7.672" fx="-.553" fy="-2.999" gradientTransform="matrix(1.4848059,0,0,1.390317,-68.996873,8.4965104)" gradientUnits="userSpaceOnUse" xlink:href="#linearGradient3937"/><radialGradient id="radialGradient4068" cx="-.432" cy="-2.938" r="7.672" fx="-.432" fy="-2.938" gradientTransform="matrix(1.4848059,0,0,1.390317,7.1466825,8.4965104)" gradientUnits="userSpaceOnUse" xlink:href="#linearGradient3937"/><radialGradient id="radialGradient4072" cx="-.432" cy="-2.938" r="7.672" fx="-.432" fy="-2.938" gradientTransform="matrix(1.4848059,0,0,1.390317,7.1466825,8.4965104)" gradientUnits="userSpaceOnUse" xlink:href="#linearGradient3937"/><radialGradient id="radialGradient4076" cx="-.432" cy="-2.938" r="7.672" fx="-.432" fy="-2.938" gradientTransform="matrix(1.4848059,0,0,1.390317,7.1466825,8.4965104)" gradientUnits="userSpaceOnUse" xlink:href="#linearGradient3937"/><radialGradient id="radialGradient4080" cx="-.432" cy="-2.938" r="7.672" fx="-.432" fy="-2.938" gradientTransform="matrix(1.4848059,0,0,1.390317,7.1466825,8.4965104)" gradientUnits="userSpaceOnUse" xlink:href="#linearGradient3937"/><radialGradient id="radialGradient4084" cx="-.432" cy="-2.938" r="7.672" fx="-.432" fy="-2.938" gradientTransform="matrix(1.4848059,0,0,1.390317,7.1466825,8.4965104)" gradientUnits="userSpaceOnUse" xlink:href="#linearGradient3937"/></defs><metadata id="metadata7"/><g id="layer1"><text id="text3878" x="3.731" y="-2.074" xml:space="preserve" style="font-size:14px;font-style:normal;font-variant:normal;font-weight:400;font-stretch:normal;fill:#000;fill-opacity:1;stroke:none;stroke-width:1px;stroke-linecap:butt;stroke-linejoin:miter;stroke-opacity:1;font-family:Courier;-inkscape-font-specification:Courier"><tspan style="font-size:4px;font-style:normal;font-variant:normal;font-weight:400;font-stretch:normal;font-family:Helvetica;-inkscape-font-specification:Helvetica" id="tspan3880" x="3.731" y="-2.074">Chat</tspan></text><text style="font-size:14px;font-style:normal;font-variant:normal;font-weight:400;font-stretch:normal;fill:#000;fill-opacity:1;stroke:none;stroke-width:1px;stroke-linecap:butt;stroke-linejoin:miter;stroke-opacity:1;font-family:Courier;-inkscape-font-specification:Courier" id="text3882" x="19.397" y="-2.074" xml:space="preserve"><tspan id="tspan3884" x="19.397" y="-2.074" style="font-size:4px;font-style:normal;font-variant:normal;font-weight:400;font-stretch:normal;font-family:Helvetica;-inkscape-font-specification:Helvetica">Error</tspan></text><text id="text3886" x="35.705" y="-2.074" xml:space="preserve" style="font-size:14px;font-style:normal;font-variant:normal;font-weight:400;font-stretch:normal;fill:#000;fill-opacity:1;stroke:none;stroke-width:1px;stroke-linecap:butt;stroke-linejoin:miter;stroke-opacity:1;font-family:Courier;-inkscape-font-specification:Courier"><tspan style="font-size:4px;font-style:normal;font-variant:normal;font-weight:400;font-stretch:normal;font-family:Helvetica;-inkscape-font-specification:Helvetica" id="tspan3888" x="35.705" y="-2.074">Note</tspan></text><text style="font-size:14px;font-style:normal;font-variant:normal;font-weight:400;font-stretch:normal;fill:#000;fill-opacity:1;stroke:none;stroke-width:1px;stroke-linecap:butt;stroke-linejoin:miter;stroke-opacity:1;font-family:Courier;-inkscape-font-specification:Courier" id="text3890" x="51.15" y="-2.074" xml:space="preserve"><tspan id="tspan3892" x="51.15" y="-2.074" style="font-size:4px;font-style:normal;font-variant:normal;font-weight:400;font-stretch:normal;font-family:Helvetica;-inkscape-font-specification:Helvetica">None</tspan></text><text id="text3894" x="67.314" y="-2.074" xml:space="preserve" style="font-size:14px;font-style:normal;font-variant:normal;font-weight:400;font-stretch:normal;fill:#000;fill-opacity:1;stroke:none;stroke-width:1px;stroke-linecap:butt;stroke-linejoin:miter;stroke-opacity:1;font-family:Courier;-inkscape-font-specification:Courier"><tspan style="font-size:4px;font-style:normal;font-variant:normal;font-weight:400;font-stretch:normal;font-family:Helvetica;-inkscape-font-specification:Helvetica" id="tspan3896" x="67.314" y="-2.074">Warn</tspan></text><path id="path3147" d="m 15.422597,8.200572 a 7.1384592,6.741878 0 1 1 -14.2769185,0 7.1384592,6.741878 0 1 1 14.2769185,0 z" transform="matrix(0.91056064,0,0,0.96412305,0.45679025,0.09363955)" style="fill:#2e3436;stroke:#2e3436;stroke-width:1.0672823600000001;stroke-linecap:round;stroke-linejoin:miter;stroke-miterlimit:4;stroke-opacity:1;stroke-dasharray:none;fill-opacity:1"/><path style="fill:#80b7f7;fill-opacity:1;stroke:#80b7f7;stroke-width:2.31244492999999984;stroke-linecap:round;stroke-linejoin:miter;stroke-miterlimit:4;stroke-opacity:.37254903;stroke-dasharray:none;opacity:.85" id="path3917" d="m 15.422597,8.200572 a 7.1384592,6.741878 0 1 1 -14.2769185,0 7.1384592,6.741878 0 1 1 14.2769185,0 z" transform="matrix(0.84051752,0,0,0.88995975,1.0370371,0.701821)"/><path id="path3919" d="m 15.422597,8.200572 a 7.1384592,6.741878 0 1 1 -14.2769185,0 7.1384592,6.741878 0 1 1 14.2769185,0 z" transform="matrix(0.84051752,0,0,0.88995974,1.0370371,0.701821)" style="fill:url(#radialGradient4068);fill-opacity:1;stroke:none"/><path style="fill:#2e3436;stroke:#2e3436;stroke-width:1.0672823199999999;stroke-linecap:round;stroke-linejoin:miter;stroke-miterlimit:4;stroke-opacity:1;stroke-dasharray:none;fill-opacity:1" id="path3947" d="m 15.422597,8.200572 a 7.1384592,6.741878 0 1 1 -14.2769185,0 7.1384592,6.741878 0 1 1 14.2769185,0 z" transform="matrix(0.91056064,0,0,0.96412305,16.45679,0.09363955)"/><path id="path3949" d="m 15.422597,8.200572 a 7.1384592,6.741878 0 1 1 -14.2769185,0 7.1384592,6.741878 0 1 1 14.2769185,0 z" transform="matrix(0.84051752,0,0,0.88995975,17.037037,0.701821)" style="fill:#ff5c5c;fill-opacity:1;stroke:#ff5c5c;stroke-width:2.31244492999999984;stroke-linecap:round;stroke-linejoin:miter;stroke-miterlimit:4;stroke-opacity:.37254903;stroke-dasharray:none;opacity:.85"/><path id="path3955" d="m 15.422597,8.200572 a 7.1384592,6.741878 0 1 1 -14.2769185,0 7.1384592,6.741878 0 1 1 14.2769185,0 z" transform="matrix(0.91056064,0,0,0.96412305,32.45679,0.09363955)" style="fill:#2e3436;stroke:#2e3436;stroke-width:1.0672823199999999;stroke-linecap:round;stroke-linejoin:miter;stroke-miterlimit:4;stroke-opacity:1;stroke-dasharray:none;fill-opacity:1"/><path style="fill:#a0ffff;fill-opacity:1;stroke:#a0ffff;stroke-width:2.31244492999999984;stroke-linecap:round;stroke-linejoin:miter;stroke-miterlimit:4;stroke-opacity:.37254903;stroke-dasharray:none;opacity:.85" id="path3957" d="m 15.422597,8.200572 a 7.1384592,6.741878 0 1 1 -14.2769185,0 7.1384592,6.741878 0 1 1 14.2769185,0 z" transform="matrix(0.84051752,0,0,0.88995975,33.037037,0.701821)"/><path style="fill:#2e3436;stroke:#2e3436;stroke-width:1.0672823199999999;stroke-linecap:round;stroke-linejoin:miter;stroke-miterlimit:4;stroke-opacity:1;stroke-dasharray:none;fill-opacity:1" id="path3963" d="m 15.422597,8.200572 a 7.1384592,6.741878 0 1 1 -14.2769185,0 7.1384592,6.741878 0 1 1 14.2769185,0 z" transform="matrix(0.91056064,0,0,0.96412305,48.45679,0.09363955)"/><path id="path3965" d="m 15.422597,8.200572 a 7.1384592,6.741878 0 1 1 -14.2769185,0 7.1384592,6.741878 0 1 1 14.2769185,0 z" transform="matrix(0.84051752,0,0,0.88995975,49.037037,0.701821)" style="fill:#babdb6;fill-opacity:1;stroke:#babdb6;stroke-width:2.31244492999999984;stroke-linecap:round;stroke-linejoin:miter;stroke-miterlimit:4;stroke-opacity:.37254903;stroke-dasharray:none;opacity:.85"/><path id="path3971" d="m 15.422597,8.200572 a 7.1384592,6.741878 0 1 1 -14.2769185,0 7.1384592,6.741878 0 1 1 14.2769185,0 z" transform="matrix(0.91056064,0,0,0.96412305,64.45679,0.09363955)" style="fill:#2e3436;stroke:#2e3436;stroke-width:1.0672823199999999;stroke-linecap:round;stroke-linejoin:miter;stroke-miterlimit:4;stroke-opacity:1;stroke-dasharray:none;fill-opacity:1"/><path style="fill:#f7f253;fill-opacity:1;stroke:#f7f253;stroke-width:2.31244492999999984;stroke-linecap:round;stroke-linejoin:miter;stroke-miterlimit:4;stroke-opacity:.37254903;stroke-dasharray:none;opacity:.85" id="path3973" d="m 15.422597,8.200572 a 7.1384592,6.741878 0 1 1 -14.2769185,0 7.1384592,6.741878 0 1 1 14.2769185,0 z" transform="matrix(0.84051752,0,0,0.88995975,65.037037,0.701821)"/><path style="fill:url(#radialGradient4072);fill-opacity:1;stroke:none" id="path4070" d="m 15.422597,8.200572 a 7.1384592,6.741878 0 1 1 -14.2769185,0 7.1384592,6.741878 0 1 1 14.2769185,0 z" transform="matrix(0.84051752,0,0,0.88995974,17.037037,0.70182104)"/><path id="path4074" d="m 15.422597,8.200572 a 7.1384592,6.741878 0 1 1 -14.2769185,0 7.1384592,6.741878 0 1 1 14.2769185,0 z" transform="matrix(0.84051752,0,0,0.88995974,33.037037,0.701821)" style="fill:url(#radialGradient4076);fill-opacity:1;stroke:none"/><path style="fill:url(#radialGradient4080);fill-opacity:1;stroke:none" id="path4078" d="m 15.422597,8.200572 a 7.1384592,6.741878 0 1 1 -14.2769185,0 7.1384592,6.741878 0 1 1 14.2769185,0 z" transform="matrix(0.84051752,0,0,0.88995974,49.037037,0.70182104)"/><path id="path4082" d="m 15.422597,8.200572 a 7.1384592,6.741878 0 1 1 -14.2769185,0 7.1384592,6.741878 0 1 1 14.2769185,0 z" transform="matrix(0.84051752,0,0,0.88995974,65.037037,0.70182104)" style="fill:url(#radialGradient4084);fill-opacity:1;stroke:none"/></g></svg>