<svg xmlns="http://www.w3.org/2000/svg" xmlns:svg="http://www.w3.org/2000/svg" id="svg2" width="28" height="28" version="1.1"><metadata id="metadata7"/><g id="layer1" transform="translate(0,-1024.3622)"><g style="font-style:normal;font-variant:normal;font-weight:400;font-stretch:normal;font-size:15px;line-height:100%;font-family:Helvetica;-inkscape-font-specification:'Helvetica, Normal';text-align:start;letter-spacing:0;word-spacing:0;writing-mode:lr-tb;text-anchor:start;fill:#000;fill-opacity:1;stroke:none;stroke-width:1.15383887px;stroke-linecap:butt;stroke-linejoin:miter;stroke-opacity:1" id="text42355" aria-label="⚠︎" transform="matrix(0.86666657,0,0,0.86667772,-6.7144534,177.91184)"><path style="stroke-width:1.15383887px" id="path42357" d="m 24.501295,997.48383 c 0.03333,-1.5 0.333333,-4.33329 0.633333,-5.99995 l 0.233333,-1.36667 c 0.06667,-0.3 0.06667,-0.56667 0.06667,-0.8 0,-0.8 -0.4,-1.06667 -1.533333,-1.06667 -1.066667,0 -1.466667,0.3 -1.466667,1.06667 0,0.2 0.03333,0.56667 0.06667,0.8 l 0.233333,1.36667 c 0.333333,1.7 0.6,4.49995 0.633333,5.99995 z m -0.6,1.1 c -0.8,0 -1.466667,0.7 -1.466667,1.49997 0,0.8667 0.666667,1.5334 1.533333,1.5334 0.833334,0 1.5,-0.7 1.5,-1.5334 0,-0.8333 -0.666666,-1.49997 -1.566666,-1.49997 z m 0.03333,-17.89995 -14.9999993,23.76662 H 38.934629 Z m 0,3.1 11.833334,18.99992 H 12.067961 Z"/></g></g></svg>