<svg xmlns="http://www.w3.org/2000/svg" xmlns:svg="http://www.w3.org/2000/svg" xmlns:xlink="http://www.w3.org/1999/xlink" id="svg2" width="14" height="14" version="1.1" viewBox="0 0 14 14"><defs id="defs4"><linearGradient id="Wireshark_highlight"><stop style="stop-color:#fff;stop-opacity:.15753424" id="stop4516" offset="0"/><stop style="stop-color:#fff;stop-opacity:0" id="stop4518" offset="1"/></linearGradient><linearGradient id="linearGradient4196" x1="5" x2="7.5" y1="0" y2="5" gradientTransform="translate(0,1038.3622)" gradientUnits="userSpaceOnUse" xlink:href="#Wireshark_highlight"/></defs><metadata id="metadata7"/><g id="layer1" transform="translate(0,-1038.3622)"><path style="color:#000;display:inline;overflow:visible;visibility:visible;fill:#a40000;fill-rule:evenodd;stroke:none;stroke-width:.5;stroke-linecap:butt;stroke-linejoin:round;stroke-miterlimit:4;stroke-dasharray:none;stroke-dashoffset:0;stroke-opacity:1;marker:none;enable-background:accumulate" id="rect4168" d="M 2 0 C 0.892 0 0 0.892 0 2 L 0 12 C 0 13.108 0.892 14 2 14 L 12 14 C 13.108 14 14 13.108 14 12 L 14 2 C 14 0.892 13.108 0 12 0 L 2 0 z M 3 2 L 7 6 L 11 2 L 12 3 L 8 7 L 12 11.001953 L 11 12 L 7 8 L 3 12 L 2 11.001953 L 6 7 L 2 3 L 3 2 z" transform="translate(0,1038.3622)"/><rect id="rect4176" width="14" height="14" x="-16" y="1038.362" rx="2" ry="2" style="color:#000;display:inline;overflow:visible;visibility:visible;fill:#888a85;fill-rule:evenodd;stroke:none;stroke-width:.5;stroke-linecap:butt;stroke-linejoin:round;stroke-miterlimit:4;stroke-dasharray:none;stroke-dashoffset:0;stroke-opacity:1;marker:none;enable-background:accumulate"/><path id="path4178" d="m -13.500077,1040.8622 c 9.000155,9.0001 9.000155,9.0001 9.000155,9.0001" style="fill:none;fill-rule:evenodd;stroke:#000;stroke-width:1.41400003;stroke-linecap:butt;stroke-linejoin:miter;stroke-miterlimit:4;stroke-dasharray:none;stroke-opacity:1"/><path style="fill:none;fill-rule:evenodd;stroke:#000;stroke-width:1.41400003;stroke-linecap:butt;stroke-linejoin:miter;stroke-miterlimit:4;stroke-dasharray:none;stroke-opacity:1" id="path4180" d="m -4.499922,1040.8622 c -9.000155,9.0001 -9.000155,9.0001 -9.000155,9.0001"/><path id="path4188" d="m 2,1038.3622 c -1.108,0 -2,0.892 -2,2 l 0,10 c 0,1.108 0.892,2 2,2 l 10,0 c 1.108,0 2,-0.892 2,-2 l 0,-10 c 0,-1.108 -0.892,-2 -2,-2 l -10,0 z m 1,2 4,4 4,-4 1,1 -4,4 4,4.002 -1,0.998 -4,-4 -4,4 -1,-0.998 4,-4.002 -4,-4 1,-1 z" style="color:#000;display:inline;overflow:visible;visibility:visible;fill:url(#linearGradient4196);fill-opacity:1;fill-rule:evenodd;stroke:none;stroke-width:.5;stroke-linecap:butt;stroke-linejoin:round;stroke-miterlimit:4;stroke-dasharray:none;stroke-dashoffset:0;stroke-opacity:1;marker:none;enable-background:accumulate"/></g></svg>