<svg xmlns="http://www.w3.org/2000/svg" xmlns:svg="http://www.w3.org/2000/svg" xmlns:xlink="http://www.w3.org/1999/xlink" id="svg1315" width="100" height="100" version="1.1"><defs id="defs1317"><linearGradient id="linearGradient3953"><stop id="stop3955" offset="0" style="stop-color:#d8d8d8;stop-opacity:.81967211"/><stop id="stop3957" offset="1" style="stop-color:#fff;stop-opacity:.01092896"/></linearGradient><linearGradient id="linearGradient3500"><stop style="stop-color:#fff;stop-opacity:.74226803" id="stop3502" offset="0"/><stop style="stop-color:#fff;stop-opacity:.2783505" id="stop3504" offset="1"/></linearGradient><linearGradient id="linearGradient2032"><stop style="stop-color:#40b2e7;stop-opacity:1" id="stop2034" offset="0"/><stop id="stop2040" offset="1" style="stop-color:#1679a7;stop-opacity:.93814433"/></linearGradient><radialGradient id="radialGradient2770" cx="186.869" cy="319.625" r="49.998" fx="186.869" fy="319.625" gradientTransform="matrix(1,0,0,0.998456,0,0.501254)" gradientUnits="userSpaceOnUse" xlink:href="#linearGradient2032"/><linearGradient id="linearGradient3506" x1="168.885" x2="173.639" y1="283.362" y2="317.438" gradientTransform="matrix(1.023684,0,0,1,-4.386892,-1)" gradientUnits="userSpaceOnUse" xlink:href="#linearGradient3500"/><linearGradient id="linearGradient3951" x1="171.486" x2="171.697" y1="278.751" y2="286.538" gradientTransform="matrix(1.004705,0,0,1.307709,-0.678079,-85.73315)" gradientUnits="userSpaceOnUse" xlink:href="#linearGradient3953"/><linearGradient id="linearGradient1330" x1="171.486" x2="172.069" y1="278.751" y2="289.87" gradientTransform="matrix(1.004705,0,0,1.307709,-0.678079,-85.73315)" gradientUnits="userSpaceOnUse" xlink:href="#linearGradient3953"/></defs><metadata id="metadata1320"/><g id="layer1" transform="translate(-133.87682,-274.48372)"><rect style="fill:url(#radialGradient2770);fill-opacity:1;stroke:#000;stroke-width:4.5539999;stroke-linejoin:round;stroke-miterlimit:4;stroke-opacity:1;stroke-dasharray:none" id="rect5811" width="95.442" height="95.288" x="136.154" y="276.919" rx="10" ry="10"/><path style="fill:none;stroke:#000;stroke-width:4.29723692;stroke-linecap:butt;stroke-linejoin:round;stroke-miterlimit:4;stroke-opacity:1;stroke-dasharray:none" id="path1328" d="m 136.88045,347.36218 24,0 c 0,0 3.7832,-48.18769 45.85138,-48.85138 -13.57037,21.23788 -0.85138,48.85138 -0.85138,48.85138 l 25,0"/><path style="fill:url(#linearGradient1330);fill-opacity:1;stroke:none" id="rect3070" d="m 141,277.36218 c 7.43358,-1.51753 76.41021,-2 85,0 8.03139,1.86998 -22,28 -42,28 -20,0 -50.54237,-26.46026 -43,-28 z"/><rect style="fill:#fff;fill-opacity:.01092894;stroke:none" id="rect5705" width="1" height="0" x="157" y="285.362" rx="8.95" ry="0"/></g></svg>